# xmcd
#
# Track frame offsets:
#	182
#	12075
#	24237
#	35267
#	50192
#	63147
#	81760
#	97412
#	112597
#	125957
#	137130
#
# Disc length: 1986 seconds
#
# Revision: 2
# Processed by: cddbd v1.5.2PL0 Copyright (c) Steve Scherf et al.
# Submitted via: audiograbber 1.83.01
#
DISCID=8e07c00b
DTITLE=Various Artist - Christmas In The Country (Disk 1)
DYEAR=1995
DGENRE=Christmas
TTITLE0=Randy Travis - Pretty Paper
TTITLE1=Johnny Lee - Please Come Home For Christmas
TTITLE2=Emmylou Harris - Light Of The Stable
TTITLE3=Tompall And The Glaser Brothers - Silver Bells
TTITLE4=The Forester Sisters - The First Noel
TTITLE5=Crystal Gayle - I'll Be Home For Christmas
TTITLE6=Mark O'Connor - What Child Is This
TTITLE7=Highway 101 - It Came Upon A midnight Clear
TTITLE8=Holly Dunn - Feliz Navidad
TTITLE9=Brenda Lee - Go Tell It On The Mountain
TTITLE10=Michael Martin Murphy - Medley: Sleigh Ride/Jingle Bells
EXTD=
EXTT0=Randy Travis
EXTT1=Johnny Lee
EXTT2=Emmylou Harris
EXTT3=Tompall and The Glaser Brothers
EXTT4=The Forester Sisters
EXTT5=Crystal Gayle
EXTT6=Mark O'Connor
EXTT7=Highway 101
EXTT8=Holly Dunn
EXTT9=Brenda Lee
EXTT10=Michael Martin Murphey
PLAYORDER=
